<svg xmlns="http://www.w3.org/2000/svg" width="251" height="85.493" viewBox="0 0 251 85.493">
  <g id="グループ_76" data-name="グループ 76" transform="translate(-389 -6494.63)">
    <path id="パス_35" data-name="パス 35" d="M9,0,31.968,12.76l-18.13-1.15Z" transform="translate(428.427 6534.459)" fill="#ffc558"/>
    <path id="パス_39" data-name="パス 39" d="M25.544,0,45.355,16.011H20.84L1.843,0Z" transform="translate(594.645 6501.955)" fill="#fff6c1"/>
    <path id="パス_33" data-name="パス 33" d="M8.9-1.384,32.13,14.908H15.945Z" transform="translate(527.336 6527.208)" fill="#ffc558"/>
    <path id="パス_36" data-name="パス 36" d="M10.683,5.8l9.666,6.963L7.537,34.522Z" transform="translate(486.484 6500.079)" fill="#fff6c1"/>
    <path id="パス_38" data-name="パス 38" d="M12.427,0,27.56,17.8,12.427,34.691,8.072,17.8Z" transform="translate(605.815 6542.115)" fill="#ffc558"/>
    <path id="パス_40" data-name="パス 40" d="M14.709,0l7.91,9.809-7.91,7.716L5.321,9.809Z" transform="translate(488.767 6542.115)" fill="#fff6c1"/>
    <path id="パス_41" data-name="パス 41" d="M15.118,0,27.353,16.255,15.118,33.7,6.836,16.255Z" transform="translate(382.164 6513.452)" fill="#fff6c1"/>
    <path id="パス_37" data-name="パス 37" d="M26.84,0l6.32,19.723L0,14.489Z" transform="translate(528.224 6557.083)" fill="#ffc558"/>
    <path id="パス_32" data-name="パス 32" d="M2.009-.231l39.01,12.516L0,20.5Z" transform="translate(440 6559.621)" fill="#fff6c1"/>
    <path id="パス_34" data-name="パス 34" d="M0,0,33.554,18.079,5.01,19.151Z" transform="translate(464.513 6522.345) rotate(-177)" fill="#ffc558"/>
    <path id="パス_42" data-name="パス 42" d="M12.427,0l5.035,19.036L12.427,34.691,1.033,17.753Z" transform="matrix(0.469, -0.883, 0.883, 0.469, 533.172, 6510.048)" fill="#ffc558"/>
  </g>
</svg>
